<svg width="219" height="71" viewBox="0 0 219 71" fill="none" xmlns="http://www.w3.org/2000/svg">
<path d="M63.02 54.6605C60.976 54.6605 59.128 54.3105 57.476 53.6105C55.852 52.9105 54.564 51.9025 53.612 50.5865C52.66 49.2705 52.17 47.7165 52.142 45.9245H58.442C58.526 47.1285 58.946 48.0805 59.702 48.7805C60.486 49.4805 61.55 49.8305 62.894 49.8305C64.266 49.8305 65.344 49.5085 66.128 48.8645C66.912 48.1925 67.304 47.3245 67.304 46.2605C67.304 45.3925 67.038 44.6785 66.506 44.1185C65.974 43.5585 65.302 43.1245 64.49 42.8165C63.706 42.4805 62.614 42.1165 61.214 41.7245C59.31 41.1645 57.756 40.6185 56.552 40.0865C55.376 39.5265 54.354 38.7005 53.486 37.6085C52.646 36.4885 52.226 35.0045 52.226 33.1565C52.226 31.4205 52.66 29.9085 53.528 28.6205C54.396 27.3325 55.614 26.3525 57.182 25.6805C58.75 24.9805 60.542 24.6305 62.558 24.6305C65.582 24.6305 68.032 25.3725 69.908 26.8565C71.812 28.3125 72.862 30.3565 73.058 32.9885H66.59C66.534 31.9805 66.1 31.1545 65.288 30.5105C64.504 29.8385 63.454 29.5025 62.138 29.5025C60.99 29.5025 60.066 29.7965 59.366 30.3845C58.694 30.9725 58.358 31.8265 58.358 32.9465C58.358 33.7305 58.61 34.3885 59.114 34.9205C59.646 35.4245 60.29 35.8445 61.046 36.1805C61.83 36.4885 62.922 36.8525 64.322 37.2725C66.226 37.8325 67.78 38.3925 68.984 38.9525C70.188 39.5125 71.224 40.3525 72.092 41.4725C72.96 42.5925 73.394 44.0625 73.394 45.8825C73.394 47.4505 72.988 48.9065 72.176 50.2505C71.364 51.5945 70.174 52.6725 68.606 53.4845C67.038 54.2685 65.176 54.6605 63.02 54.6605ZM91.3858 30.7625C94.1578 30.7625 96.3978 31.6445 98.1058 33.4085C99.8138 35.1445 100.668 37.5805 100.668 40.7165V54.3665H94.7878V41.5145C94.7878 39.6665 94.3258 38.2525 93.4018 37.2725C92.4778 36.2645 91.2178 35.7605 89.6218 35.7605C87.9978 35.7605 86.7098 36.2645 85.7578 37.2725C84.8338 38.2525 84.3718 39.6665 84.3718 41.5145V54.3665H78.4918V31.0985H84.3718V33.9965C85.1558 32.9885 86.1498 32.2045 87.3538 31.6445C88.5858 31.0565 89.9298 30.7625 91.3858 30.7625ZM104.747 42.6485C104.747 40.2965 105.209 38.2105 106.133 36.3905C107.085 34.5705 108.359 33.1705 109.955 32.1905C111.579 31.2105 113.385 30.7205 115.373 30.7205C117.109 30.7205 118.621 31.0705 119.909 31.7705C121.225 32.4705 122.275 33.3525 123.059 34.4165V31.0985H128.981V54.3665H123.059V50.9645C122.303 52.0565 121.253 52.9665 119.909 53.6945C118.593 54.3945 117.067 54.7445 115.331 54.7445C113.371 54.7445 111.579 54.2405 109.955 53.2325C108.359 52.2245 107.085 50.8105 106.133 48.9905C105.209 47.1425 104.747 45.0285 104.747 42.6485ZM123.059 42.7325C123.059 41.3045 122.779 40.0865 122.219 39.0785C121.659 38.0425 120.903 37.2585 119.951 36.7265C118.999 36.1665 117.977 35.8865 116.885 35.8865C115.793 35.8865 114.785 36.1525 113.861 36.6845C112.937 37.2165 112.181 38.0005 111.593 39.0365C111.033 40.0445 110.753 41.2485 110.753 42.6485C110.753 44.0485 111.033 45.2805 111.593 46.3445C112.181 47.3805 112.937 48.1785 113.861 48.7385C114.813 49.2985 115.821 49.5785 116.885 49.5785C117.977 49.5785 118.999 49.3125 119.951 48.7805C120.903 48.2205 121.659 47.4365 122.219 46.4285C122.779 45.3925 123.059 44.1605 123.059 42.7325ZM140.604 34.4585C141.36 33.3945 142.396 32.5125 143.712 31.8125C145.056 31.0845 146.582 30.7205 148.29 30.7205C150.278 30.7205 152.07 31.2105 153.666 32.1905C155.29 33.1705 156.564 34.5705 157.488 36.3905C158.44 38.1825 158.916 40.2685 158.916 42.6485C158.916 45.0285 158.44 47.1425 157.488 48.9905C156.564 50.8105 155.29 52.2245 153.666 53.2325C152.07 54.2405 150.278 54.7445 148.29 54.7445C146.582 54.7445 145.07 54.3945 143.754 53.6945C142.466 52.9945 141.416 52.1125 140.604 51.0485V65.4545H134.724V31.0985H140.604V34.4585ZM152.91 42.6485C152.91 41.2485 152.616 40.0445 152.028 39.0365C151.468 38.0005 150.712 37.2165 149.76 36.6845C148.836 36.1525 147.828 35.8865 146.736 35.8865C145.672 35.8865 144.664 36.1665 143.712 36.7265C142.788 37.2585 142.032 38.0425 141.444 39.0785C140.884 40.1145 140.604 41.3325 140.604 42.7325C140.604 44.1325 140.884 45.3505 141.444 46.3865C142.032 47.4225 142.788 48.2205 143.712 48.7805C144.664 49.3125 145.672 49.5785 146.736 49.5785C147.828 49.5785 148.836 49.2985 149.76 48.7385C150.712 48.1785 151.468 47.3805 152.028 46.3445C152.616 45.3085 152.91 44.0765 152.91 42.6485ZM185.029 59.5325L180.577 54.1985C179.345 54.5065 178.085 54.6605 176.797 54.6605C174.053 54.6605 171.533 54.0165 169.237 52.7285C166.941 51.4405 165.121 49.6625 163.777 47.3945C162.433 45.0985 161.761 42.5085 161.761 39.6245C161.761 36.7685 162.433 34.2065 163.777 31.9385C165.121 29.6425 166.941 27.8505 169.237 26.5625C171.533 25.2745 174.053 24.6305 176.797 24.6305C179.569 24.6305 182.089 25.2745 184.357 26.5625C186.653 27.8505 188.459 29.6425 189.775 31.9385C191.119 34.2065 191.791 36.7685 191.791 39.6245C191.791 42.2285 191.231 44.6085 190.111 46.7645C189.019 48.8925 187.521 50.6285 185.617 51.9725L192.337 59.5325H185.029ZM167.809 39.6245C167.809 41.5845 168.187 43.3065 168.943 44.7905C169.699 46.2745 170.749 47.4225 172.093 48.2345C173.465 49.0185 175.033 49.4105 176.797 49.4105C178.561 49.4105 180.115 49.0185 181.459 48.2345C182.803 47.4225 183.853 46.2745 184.609 44.7905C185.365 43.3065 185.743 41.5845 185.743 39.6245C185.743 37.6645 185.365 35.9565 184.609 34.5005C183.853 33.0165 182.803 31.8825 181.459 31.0985C180.115 30.3145 178.561 29.9225 176.797 29.9225C175.033 29.9225 173.465 30.3145 172.093 31.0985C170.749 31.8825 169.699 33.0165 168.943 34.5005C168.187 35.9565 167.809 37.6645 167.809 39.6245ZM211.368 54.3665L204.9 42.9425H202.128V54.3665H196.248V25.0505H207.252C209.52 25.0505 211.452 25.4565 213.048 26.2685C214.644 27.0525 215.834 28.1305 216.618 29.5025C217.43 30.8465 217.836 32.3585 217.836 34.0385C217.836 35.9705 217.276 37.7205 216.156 39.2885C215.036 40.8285 213.37 41.8925 211.158 42.4805L218.172 54.3665H211.368ZM202.128 38.5325H207.042C208.638 38.5325 209.828 38.1545 210.612 37.3985C211.396 36.6145 211.788 35.5365 211.788 34.1645C211.788 32.8205 211.396 31.7845 210.612 31.0565C209.828 30.3005 208.638 29.9225 207.042 29.9225H202.128V38.5325Z" fill="url(#paint0_linear_305_34)" fill-opacity="0.8"/>
<mask id="mask0_305_34" style="mask-type:alpha" maskUnits="userSpaceOnUse" x="0" y="0" width="44" height="56">
<rect y="0.966553" width="44" height="54.2667" fill="#FF5D31"/>
<rect x="0.5" y="1.46655" width="43" height="53.2667" stroke="#000958" stroke-opacity="0.4"/>
</mask>
<g mask="url(#mask0_305_34)">
<path d="M3.6665 16.7946V5.48901H12.8332V10.0112H7.33317V16.7946H3.6665ZM3.6665 50.7112V39.4057H7.33317V46.189H12.8332V50.7112H3.6665ZM31.1665 50.7112V46.189H36.6665V39.4057H40.3332V50.7112H31.1665ZM36.6665 16.7946V10.0112H31.1665V5.48901H40.3332V16.7946H36.6665ZM32.0832 40.5362H34.8332V43.9279H32.0832V40.5362ZM32.0832 33.7529H34.8332V37.1446H32.0832V33.7529ZM29.3332 37.1446H32.0832V40.5362H29.3332V37.1446ZM26.5832 40.5362H29.3332V43.9279H26.5832V40.5362ZM23.8332 37.1446H26.5832V40.5362H23.8332V37.1446ZM29.3332 30.3612H32.0832V33.7529H29.3332V30.3612ZM26.5832 33.7529H29.3332V37.1446H26.5832V33.7529ZM23.8332 30.3612H26.5832V33.7529H23.8332V30.3612ZM34.8332 12.2723V25.839H23.8332V12.2723H34.8332ZM20.1665 30.3612V43.9279H9.1665V30.3612H20.1665ZM20.1665 12.2723V25.839H9.1665V12.2723H20.1665ZM17.4165 40.5362V33.7529H11.9165V40.5362H17.4165ZM17.4165 22.4473V15.664H11.9165V22.4473H17.4165ZM32.0832 22.4473V15.664H26.5832V22.4473H32.0832Z" fill="#FF5D31"/>
<path d="M6.83317 10.0112V16.2946H4.1665V5.98901H12.3332V9.51124H7.33317H6.83317V10.0112ZM7.33317 46.689H12.3332V50.2112H4.1665V39.9057H6.83317V46.189V46.689H7.33317ZM37.1665 46.189V39.9057H39.8332V50.2112H31.6665V46.689H36.6665H37.1665V46.189ZM36.6665 9.51124H31.6665V5.98901H39.8332V16.2946H37.1665V10.0112V9.51124H36.6665ZM32.5832 43.4279V41.0362H34.3332V43.4279H32.5832ZM31.5832 37.6446V40.0362H29.8332V37.6446H31.5832ZM29.8332 33.2529V30.8612H31.5832V33.2529H29.8332ZM27.0832 34.2529H28.8332V36.6446H27.0832V34.2529ZM26.0832 33.2529H24.3332V30.8612H26.0832V33.2529ZM26.0832 40.0362H24.3332V37.6446H26.0832V40.0362ZM27.0832 41.0362H28.8332V43.4279H27.0832V41.0362ZM32.5832 36.6446V34.2529H34.3332V36.6446H32.5832ZM17.4165 41.0362H17.9165V40.5362V33.7529V33.2529H17.4165H11.9165H11.4165V33.7529V40.5362V41.0362H11.9165H17.4165ZM17.4165 22.9473H17.9165V22.4473V15.664V15.164H17.4165H11.9165H11.4165V15.664V22.4473V22.9473H11.9165H17.4165ZM32.0832 22.9473H32.5832V22.4473V15.664V15.164H32.0832H26.5832H26.0832V15.664V22.4473V22.9473H26.5832H32.0832ZM34.3332 12.7723V25.339H24.3332V12.7723H34.3332ZM19.6665 30.8612V43.4279H9.6665V30.8612H19.6665ZM19.6665 12.7723V25.339H9.6665V12.7723H19.6665Z" stroke="#000958" stroke-opacity="0.4"/>
</g>
<defs>
<linearGradient id="paint0_linear_305_34" x1="135.5" y1="8.36646" x2="135.5" y2="71.3665" gradientUnits="userSpaceOnUse">
<stop stop-color="#FF5D31"/>
<stop offset="0.5" stop-color="#CC4A27"/>
<stop offset="1" stop-color="#99381D"/>
</linearGradient>
</defs>
</svg>
