<svg width="250" height="250" viewBox="0 0 250 250" fill="none" xmlns="http://www.w3.org/2000/svg">
<mask id="mask0_307_232" style="mask-type:alpha" maskUnits="userSpaceOnUse" x="0" y="0" width="250" height="250">
<rect width="250" height="250" fill="#D9D9D9"/>
</mask>
<g mask="url(#mask0_307_232)">
<path d="M31.25 218.75C25.5208 218.75 20.6163 216.71 16.5364 212.63C12.4566 208.55 10.4166 203.646 10.4166 197.916V72.9165C10.4166 67.1873 12.4566 62.2828 16.5364 58.203C20.6163 54.1231 25.5208 52.0832 31.25 52.0832H64.0625L83.3333 31.2498H145.833V52.0832H92.4479L73.4375 72.9165H31.25V197.916H197.917V104.166H218.75V197.916C218.75 203.646 216.71 208.55 212.63 212.63C208.55 216.71 203.646 218.75 197.917 218.75H31.25ZM197.917 72.9165V52.0832H177.083V31.2498H197.917V10.4165H218.75V31.2498H239.583V52.0832H218.75V72.9165H197.917ZM114.583 182.291C127.604 182.291 138.672 177.734 147.786 168.62C156.901 159.505 161.458 148.437 161.458 135.416C161.458 122.396 156.901 111.328 147.786 102.213C138.672 93.0988 127.604 88.5415 114.583 88.5415C101.562 88.5415 90.4948 93.0988 81.3802 102.213C72.2656 111.328 67.7083 122.396 67.7083 135.416C67.7083 148.437 72.2656 159.505 81.3802 168.62C90.4948 177.734 101.562 182.291 114.583 182.291ZM114.583 161.458C107.292 161.458 101.128 158.941 96.0937 153.906C91.059 148.871 88.5416 142.708 88.5416 135.416C88.5416 128.125 91.059 121.962 96.0937 116.927C101.128 111.892 107.292 109.375 114.583 109.375C121.875 109.375 128.038 111.892 133.073 116.927C138.108 121.962 140.625 128.125 140.625 135.416C140.625 142.708 138.108 148.871 133.073 153.906C128.038 158.941 121.875 161.458 114.583 161.458Z" fill="#FF5D31" fill-opacity="0.2"/>
</g>
</svg>
